<mxfile host="app.diagrams.net" agent="Mozilla/5.0 (Windows NT 10.0; Win64; x64) AppleWebKit/537.36 (KHTML, like Gecko) Chrome/129.0.0.0 Safari/537.36" version="24.7.17">
  <diagram name="Pagina-1" id="iAnM0O5_gAzAm8jMhJmV">
    <mxGraphModel dx="819" dy="426" grid="1" gridSize="10" guides="1" tooltips="1" connect="1" arrows="1" fold="1" page="1" pageScale="1" pageWidth="827" pageHeight="1169" math="0" shadow="0">
      <root>
        <mxCell id="0" />
        <mxCell id="1" parent="0" />
        <mxCell id="_ZufIqOSWvUHcQ_vfNkt-1" value="Utente" style="shape=umlActor;verticalLabelPosition=bottom;verticalAlign=top;html=1;outlineConnect=0;" vertex="1" parent="1">
          <mxGeometry x="160" y="270" width="30" height="60" as="geometry" />
        </mxCell>
        <mxCell id="_ZufIqOSWvUHcQ_vfNkt-2" value="Esegue login" style="ellipse;whiteSpace=wrap;html=1;" vertex="1" parent="1">
          <mxGeometry x="260" y="315" width="80" height="50" as="geometry" />
        </mxCell>
        <mxCell id="_ZufIqOSWvUHcQ_vfNkt-3" value="Ricerca e filtri" style="ellipse;whiteSpace=wrap;html=1;" vertex="1" parent="1">
          <mxGeometry x="460" y="230" width="80" height="50" as="geometry" />
        </mxCell>
        <mxCell id="_ZufIqOSWvUHcQ_vfNkt-4" value="Accesso alle chat" style="ellipse;whiteSpace=wrap;html=1;" vertex="1" parent="1">
          <mxGeometry x="460" y="310" width="80" height="50" as="geometry" />
        </mxCell>
        <mxCell id="_ZufIqOSWvUHcQ_vfNkt-5" value="&lt;font style=&quot;font-size: 8px;&quot;&gt;Accesso all&#39;analisi delle conversazioni&lt;/font&gt;" style="ellipse;whiteSpace=wrap;html=1;" vertex="1" parent="1">
          <mxGeometry x="460" y="380" width="80" height="50" as="geometry" />
        </mxCell>
        <mxCell id="_ZufIqOSWvUHcQ_vfNkt-6" value="Esportare chat" style="ellipse;whiteSpace=wrap;html=1;" vertex="1" parent="1">
          <mxGeometry x="640" y="310" width="80" height="50" as="geometry" />
        </mxCell>
        <mxCell id="_ZufIqOSWvUHcQ_vfNkt-7" value="" style="endArrow=classic;html=1;rounded=0;entryX=1;entryY=0.5;entryDx=0;entryDy=0;exitX=0;exitY=0.5;exitDx=0;exitDy=0;dashed=1;" edge="1" parent="1" source="_ZufIqOSWvUHcQ_vfNkt-6" target="_ZufIqOSWvUHcQ_vfNkt-4">
          <mxGeometry width="50" height="50" relative="1" as="geometry">
            <mxPoint x="613" y="470" as="sourcePoint" />
            <mxPoint x="663" y="420" as="targetPoint" />
          </mxGeometry>
        </mxCell>
        <mxCell id="_ZufIqOSWvUHcQ_vfNkt-8" value="&amp;lt;&amp;lt;extend&amp;gt;&amp;gt;" style="edgeLabel;html=1;align=center;verticalAlign=middle;resizable=0;points=[];" vertex="1" connectable="0" parent="_ZufIqOSWvUHcQ_vfNkt-7">
          <mxGeometry x="-0.1246" relative="1" as="geometry">
            <mxPoint as="offset" />
          </mxGeometry>
        </mxCell>
        <mxCell id="_ZufIqOSWvUHcQ_vfNkt-9" value="" style="endArrow=classic;html=1;rounded=0;exitX=0;exitY=0.5;exitDx=0;exitDy=0;entryX=0.984;entryY=0.352;entryDx=0;entryDy=0;dashed=1;entryPerimeter=0;" edge="1" parent="1" source="_ZufIqOSWvUHcQ_vfNkt-3" target="_ZufIqOSWvUHcQ_vfNkt-2">
          <mxGeometry width="50" height="50" relative="1" as="geometry">
            <mxPoint x="256" y="300" as="sourcePoint" />
            <mxPoint x="306" y="250" as="targetPoint" />
          </mxGeometry>
        </mxCell>
        <mxCell id="_ZufIqOSWvUHcQ_vfNkt-10" value="&amp;lt;&amp;lt;extend&amp;gt;&amp;gt;" style="edgeLabel;html=1;align=center;verticalAlign=middle;resizable=0;points=[];" vertex="1" connectable="0" parent="_ZufIqOSWvUHcQ_vfNkt-9">
          <mxGeometry x="-0.0185" y="-1" relative="1" as="geometry">
            <mxPoint as="offset" />
          </mxGeometry>
        </mxCell>
        <mxCell id="_ZufIqOSWvUHcQ_vfNkt-11" value="" style="endArrow=classic;html=1;rounded=0;exitX=0;exitY=0.5;exitDx=0;exitDy=0;entryX=0.955;entryY=0.719;entryDx=0;entryDy=0;dashed=1;entryPerimeter=0;" edge="1" parent="1" source="_ZufIqOSWvUHcQ_vfNkt-4" target="_ZufIqOSWvUHcQ_vfNkt-2">
          <mxGeometry width="50" height="50" relative="1" as="geometry">
            <mxPoint x="426" y="285" as="sourcePoint" />
            <mxPoint x="348" y="342" as="targetPoint" />
          </mxGeometry>
        </mxCell>
        <mxCell id="_ZufIqOSWvUHcQ_vfNkt-12" value="&amp;lt;&amp;lt;extend&amp;gt;&amp;gt;" style="edgeLabel;html=1;align=center;verticalAlign=middle;resizable=0;points=[];" vertex="1" connectable="0" parent="_ZufIqOSWvUHcQ_vfNkt-11">
          <mxGeometry x="-0.0236" y="-1" relative="1" as="geometry">
            <mxPoint as="offset" />
          </mxGeometry>
        </mxCell>
        <mxCell id="_ZufIqOSWvUHcQ_vfNkt-13" value="" style="endArrow=classic;html=1;rounded=0;exitX=0;exitY=0.5;exitDx=0;exitDy=0;entryX=1;entryY=1;entryDx=0;entryDy=0;dashed=1;" edge="1" parent="1" source="_ZufIqOSWvUHcQ_vfNkt-5" target="_ZufIqOSWvUHcQ_vfNkt-2">
          <mxGeometry width="50" height="50" relative="1" as="geometry">
            <mxPoint x="436" y="295" as="sourcePoint" />
            <mxPoint x="358" y="352" as="targetPoint" />
          </mxGeometry>
        </mxCell>
        <mxCell id="_ZufIqOSWvUHcQ_vfNkt-14" value="&amp;lt;&amp;lt;extend&amp;gt;&amp;gt;" style="edgeLabel;html=1;align=center;verticalAlign=middle;resizable=0;points=[];" vertex="1" connectable="0" parent="_ZufIqOSWvUHcQ_vfNkt-13">
          <mxGeometry x="0.0979" relative="1" as="geometry">
            <mxPoint as="offset" />
          </mxGeometry>
        </mxCell>
        <mxCell id="_ZufIqOSWvUHcQ_vfNkt-15" value="Crea un account" style="ellipse;whiteSpace=wrap;html=1;" vertex="1" parent="1">
          <mxGeometry x="260" y="230" width="80" height="50" as="geometry" />
        </mxCell>
        <mxCell id="_ZufIqOSWvUHcQ_vfNkt-16" value="" style="endArrow=none;html=1;rounded=0;entryX=0;entryY=0.5;entryDx=0;entryDy=0;" edge="1" parent="1" source="_ZufIqOSWvUHcQ_vfNkt-1" target="_ZufIqOSWvUHcQ_vfNkt-15">
          <mxGeometry width="50" height="50" relative="1" as="geometry">
            <mxPoint x="190" y="299" as="sourcePoint" />
            <mxPoint x="270" y="280" as="targetPoint" />
          </mxGeometry>
        </mxCell>
        <mxCell id="_ZufIqOSWvUHcQ_vfNkt-17" value="" style="endArrow=classic;html=1;rounded=0;entryX=0.5;entryY=1;entryDx=0;entryDy=0;exitX=0.5;exitY=0;exitDx=0;exitDy=0;dashed=1;" edge="1" parent="1">
          <mxGeometry width="50" height="50" relative="1" as="geometry">
            <mxPoint x="300" y="315" as="sourcePoint" />
            <mxPoint x="300" y="280" as="targetPoint" />
          </mxGeometry>
        </mxCell>
        <mxCell id="_ZufIqOSWvUHcQ_vfNkt-18" value="&amp;lt;&amp;lt;Include&amp;gt;&amp;gt;" style="edgeLabel;html=1;align=center;verticalAlign=middle;resizable=0;points=[];" vertex="1" connectable="0" parent="_ZufIqOSWvUHcQ_vfNkt-17">
          <mxGeometry x="-0.0857" relative="1" as="geometry">
            <mxPoint as="offset" />
          </mxGeometry>
        </mxCell>
      </root>
    </mxGraphModel>
  </diagram>
</mxfile>
